<svg width="189" height="35" viewBox="0 0 189 35" fill="none" xmlns="http://www.w3.org/2000/svg">
<path d="M6.8443 26.8697C10.3736 26.8697 13.654 24.5918 13.654 20.4022C13.654 17.8097 12.4061 15.6216 10.0936 14.5604C8.5312 13.8414 6.9999 13.8414 6.8443 13.8414C5.2197 13.8414 3.6572 12.8735 3.6572 11.0622C3.6572 9.02971 5.1263 8.03073 6.8443 8.03073C8.5001 8.03073 9.9035 8.84306 9.9692 10.6543H13.5918C13.5296 6.93841 10.6225 4.37354 6.8443 4.37354C3.3116 4.37354 0 6.90383 0 11.0622C0 13.6547 1.2825 15.5905 3.5639 16.6552C5.1574 17.3742 6.6542 17.3742 6.8443 17.3742C8.31 17.4364 10.0314 18.5598 10.0314 20.4022C10.0314 22.1202 8.5312 23.216 6.8443 23.216C5.2197 23.216 3.7194 22.3103 3.6572 20.4956H0C0.0623 24.5918 3.0627 26.7764 6.8443 26.8697Z" fill="black"/>
<path d="M34.2142 4.68848H30.557V13.7485H21.4658V4.68848H17.8086V26.559H21.4658V17.4368H30.557V26.559H34.2142V4.68848Z" fill="black"/>
<path d="M49.1143 4.18701C34.7133 4.18701 34.6793 26.621 49.1143 26.621C63.4873 26.621 63.4563 4.18701 49.1143 4.18701ZM49.1143 23.0917C39.6493 23.0917 39.6813 7.75088 49.1143 7.75088C58.5823 7.75088 58.5823 23.0917 49.1143 23.0917Z" fill="black"/>
<path d="M84.0758 27.4336L92.8248 4.68848H88.8878L84.0758 17.5923L79.2648 4.68848H75.2028L70.3908 17.5923L65.6108 4.68848H61.6738L70.3908 27.4336L77.2358 9.43799L84.0758 27.4336Z" fill="black"/>
<path d="M105.57 23.216C101.539 23.216 98.3206 20.3089 98.3206 15.6216C98.3206 11.2178 101.069 8.03073 105.57 8.03073C107.568 8.03073 109.414 8.84306 110.724 10.1566L113.285 7.59173C111.318 5.59375 108.601 4.37354 105.57 4.37354C99.1646 4.37354 94.6016 9.02972 94.6016 15.6216C94.6016 22.497 99.5376 26.8697 105.57 26.8697C108.601 26.8697 111.318 25.653 113.285 23.6826L110.724 21.0901C109.414 22.4037 107.568 23.216 105.57 23.216Z" fill="black"/>
<path d="M127.127 24.0289L128.095 26.5592H132.033L123.284 4.06299L114.566 26.5592H118.503L119.44 24.0289H127.127ZM120.629 20.8729L123.284 13.2785L125.938 20.8729H120.629Z" fill="black"/>
<path d="M140.561 26.8697C144.091 26.8697 147.371 24.6229 147.371 20.4333C147.371 17.8408 146.123 15.6216 143.811 14.5604C142.248 13.8414 140.717 13.8414 140.561 13.8414C138.937 13.8414 137.374 12.8735 137.374 11.0622C137.374 9.02971 138.843 8.03073 140.561 8.03073C142.217 8.03073 143.62 8.84306 143.686 10.6543H147.309C147.246 6.93841 144.339 4.37354 140.561 4.37354C137.028 4.37354 133.717 6.90383 133.717 11.0622C133.717 13.6547 134.999 15.5905 137.281 16.6552C138.874 17.3742 140.371 17.3742 140.561 17.3742C142.027 17.4364 143.748 18.5909 143.748 20.4333C143.748 22.1548 142.248 23.216 140.561 23.216C138.937 23.216 137.436 22.3103 137.374 20.4956H133.717C133.779 24.5918 136.78 26.7764 140.561 26.8697Z" fill="black"/>
<mask id="mask0_194_993" style="mask-type:luminance" maskUnits="userSpaceOnUse" x="147" y="2" width="42" height="31">
<path d="M147.814 2.896H188.52V32.0982H147.814V2.896Z" fill="white"/>
</mask>
<g mask="url(#mask0_194_993)">
<mask id="mask1_194_993" style="mask-type:luminance" maskUnits="userSpaceOnUse" x="147" y="-7" width="42" height="49">
<path d="M188.477 2.92622L176.472 41.0692L147.826 32.0532L159.83 -6.08887L188.477 2.92622Z" fill="white"/>
</mask>
<g mask="url(#mask1_194_993)">
<mask id="mask2_194_993" style="mask-type:luminance" maskUnits="userSpaceOnUse" x="147" y="-7" width="42" height="49">
<path d="M188.476 2.92633L176.471 41.0693L147.865 32.0663L159.868 -6.07666L188.476 2.92633Z" fill="white"/>
</mask>
<g mask="url(#mask2_194_993)">
<mask id="mask3_194_993" style="mask-type:luminance" maskUnits="userSpaceOnUse" x="147" y="2" width="42" height="31">
<path d="M179.473 31.5334L188.476 2.92578L156.868 3.45898L147.865 32.0658L179.473 31.5334Z" fill="white"/>
</mask>
<g mask="url(#mask3_194_993)">
<path d="M179.472 31.5339L188.474 2.92627L156.866 3.45948L147.863 32.0663L179.472 31.5339Z" stroke="black" stroke-width="5.5"/>
</g>
</g>
</g>
</g>
<mask id="mask4_194_993" style="mask-type:luminance" maskUnits="userSpaceOnUse" x="159" y="0" width="4" height="36">
<path d="M159.656 0.114258H162.701V35.0001H159.656V0.114258Z" fill="white"/>
</mask>
<g mask="url(#mask4_194_993)">
<mask id="mask5_194_993" style="mask-type:luminance" maskUnits="userSpaceOnUse" x="159" y="0" width="4" height="35">
<path d="M160.486 0.114258H161.871C162.329 0.114258 162.701 0.485854 162.701 0.943869V34.1645C162.701 34.6225 162.329 34.9941 161.871 34.9941H160.486C160.028 34.9941 159.656 34.6225 159.656 34.1645V0.943869C159.656 0.485854 160.028 0.114258 160.486 0.114258Z" fill="white"/>
</mask>
<g mask="url(#mask5_194_993)">
<path d="M159.656 0.114258H162.701V34.988H159.656V0.114258Z" fill="#FF66C4"/>
</g>
</g>
<mask id="mask6_194_993" style="mask-type:luminance" maskUnits="userSpaceOnUse" x="164" y="0" width="4" height="36">
<path d="M164.57 0.114258H167.614V35.0001H164.57V0.114258Z" fill="white"/>
</mask>
<g mask="url(#mask6_194_993)">
<mask id="mask7_194_993" style="mask-type:luminance" maskUnits="userSpaceOnUse" x="164" y="0" width="4" height="35">
<path d="M165.4 0.114258H166.785C167.243 0.114258 167.614 0.485854 167.614 0.943869V34.1645C167.614 34.6225 167.243 34.9941 166.785 34.9941H165.4C164.941 34.9941 164.57 34.6225 164.57 34.1645V0.943869C164.57 0.485854 164.941 0.114258 165.4 0.114258Z" fill="white"/>
</mask>
<g mask="url(#mask7_194_993)">
<path d="M164.57 0.114258H167.614V34.988H164.57V0.114258Z" fill="#FF914D"/>
</g>
</g>
<mask id="mask8_194_993" style="mask-type:luminance" maskUnits="userSpaceOnUse" x="169" y="0" width="4" height="35">
<path d="M169.549 0H172.594V34.8859H169.549V0Z" fill="white"/>
</mask>
<g mask="url(#mask8_194_993)">
<mask id="mask9_194_993" style="mask-type:luminance" maskUnits="userSpaceOnUse" x="169" y="0" width="4" height="35">
<path d="M170.378 0H171.764C172.222 0 172.594 0.371596 172.594 0.829609V34.0502C172.594 34.5082 172.222 34.8798 171.764 34.8798H170.378C169.92 34.8798 169.549 34.5082 169.549 34.0502V0.829609C169.549 0.371596 169.92 0 170.378 0Z" fill="white"/>
</mask>
<g mask="url(#mask9_194_993)">
<path d="M169.549 0H172.594V34.8738H169.549V0Z" fill="#38B6FF"/>
</g>
</g>
<mask id="mask10_194_993" style="mask-type:luminance" maskUnits="userSpaceOnUse" x="174" y="0" width="4" height="36">
<path d="M174.525 0.114258H177.57V35.0001H174.525V0.114258Z" fill="white"/>
</mask>
<g mask="url(#mask10_194_993)">
<mask id="mask11_194_993" style="mask-type:luminance" maskUnits="userSpaceOnUse" x="174" y="0" width="4" height="35">
<path d="M175.355 0.114258H176.741C177.199 0.114258 177.57 0.485854 177.57 0.943869V34.1645C177.57 34.6225 177.199 34.9941 176.741 34.9941H175.355C174.897 34.9941 174.525 34.6225 174.525 34.1645V0.943869C174.525 0.485854 174.897 0.114258 175.355 0.114258Z" fill="white"/>
</mask>
<g mask="url(#mask11_194_993)">
<path d="M174.525 0.114258H177.57V34.988H174.525V0.114258Z" fill="#8C52FF"/>
</g>
</g>
</svg>
